<?xml version="1.0" encoding="utf-8"?>
<!-- Generator: Adobe Illustrator 19.1.0, SVG Export Plug-In . SVG Version: 6.00 Build 0)  -->
<svg version="1.1" id="Layer_1" xmlns="http://www.w3.org/2000/svg" xmlns:xlink="http://www.w3.org/1999/xlink" x="0px" y="0px"
	 viewBox="64 -69.7 428 438.7" style="enable-background:new 64 -69.7 428 438.7;" xml:space="preserve">
<style type="text/css">
	.st0{fill:#FFFFFF;}
</style>
<path class="st0" d="M489.6,89.3l-39.1-29v-86c0-2.2-1.3-3.8-3.5-3.8h-73.3c-2.2,0-4.2,1.6-4.2,3.8v25.5L278-68.4
	c-1.4-1.1-3.4-1.1-4.8,0L66.1,89.3c-1,0.8-1.6,1.9-1.6,3.2v272c0,2.2,1.8,4,4,4h148c2.2,0,4-1.8,4-4v-100c0-2.2,1.8-4,4-4h103
	c2.2,0,4,1.8,4,4v100c0,2.2,1.8,4,4,4h152c2.2,0,4-1.8,4-4v-272C491.5,91.2,490.7,90,489.6,89.3z"/>
</svg>
