<?xml version="1.0" encoding="utf-8"?>
<!-- Generator: Adobe Illustrator 19.1.0, SVG Export Plug-In . SVG Version: 6.00 Build 0)  -->
<svg version="1.1" id="Layer_1" xmlns="http://www.w3.org/2000/svg" xmlns:xlink="http://www.w3.org/1999/xlink" x="0px" y="0px"
	 viewBox="140 -143.7 427 437.7" style="enable-background:new 140 -143.7 427 437.7;" xml:space="preserve">
<style type="text/css">
	.st0{fill:#FFD800;}
</style>
<path class="st0" d="M565.1,14.8l-39.1-29v-86c0-2.2-1.3-3.8-3.5-3.8h-73.3c-2.2,0-4.2,1.6-4.2,3.8v25.5l-91.5-68.2
	c-1.4-1.1-3.4-1.1-4.8,0L141.6,14.8c-1,0.8-1.6,1.9-1.6,3.2v272c0,2.2,1.8,4,4,4h148c2.2,0,4-1.8,4-4V190c0-2.2,1.8-4,4-4h103
	c2.2,0,4,1.8,4,4v100c0,2.2,1.8,4,4,4h152c2.2,0,4-1.8,4-4V18C567,16.7,566.2,15.5,565.1,14.8z"/>
</svg>
